<svg width="26" height="29" viewBox="0 0 26 29" fill="none" xmlns="http://www.w3.org/2000/svg">
<path d="M18.6667 13.7771C18.2558 13.3689 17.5758 13.3689 17.165 13.7771L11.0025 19.8992L8.75 17.6614C8.33917 17.2533 7.65917 17.2533 7.24833 17.6614C6.8375 18.0696 6.8375 18.7451 7.24833 19.1532L9.99667 21.8836C10.5492 22.4324 11.4417 22.4324 11.9942 21.8836L18.6525 15.2689C19.0775 14.8607 19.0775 14.1852 18.6667 13.7771ZM22.9167 3.17952H21.5V1.77214C21.5 0.998081 20.8625 0.364761 20.0833 0.364761C19.3042 0.364761 18.6667 0.998081 18.6667 1.77214V3.17952H7.33333V1.77214C7.33333 0.998081 6.69583 0.364761 5.91667 0.364761C5.1375 0.364761 4.5 0.998081 4.5 1.77214V3.17952H3.08333C1.51083 3.17952 0.264167 4.44615 0.264167 5.99427L0.25 25.6975C0.25 27.2457 1.51083 28.5123 3.08333 28.5123H22.9167C24.475 28.5123 25.75 27.2457 25.75 25.6975V5.99427C25.75 4.44615 24.475 3.17952 22.9167 3.17952ZM21.5 25.6975H4.5C3.72083 25.6975 3.08333 25.0642 3.08333 24.2902V10.2164H22.9167V24.2902C22.9167 25.0642 22.2792 25.6975 21.5 25.6975Z" fill="white"/>
</svg>
