<svg width="22" height="29" viewBox="0 0 22 29" fill="none" xmlns="http://www.w3.org/2000/svg">
<path d="M11 0.778656C5.195 0.778656 0.5 5.18375 0.5 10.6303C0.5 16.4991 7.13 24.5915 9.86 27.6736C10.46 28.3492 11.555 28.3492 12.155 27.6736C14.87 24.5915 21.5 16.4991 21.5 10.6303C21.5 5.18375 16.805 0.778656 11 0.778656ZM11 14.1487C8.93 14.1487 7.25 12.5725 7.25 10.6303C7.25 8.68811 8.93 7.11185 11 7.11185C13.07 7.11185 14.75 8.68811 14.75 10.6303C14.75 12.5725 13.07 14.1487 11 14.1487Z" fill="white"/>
</svg>
