<svg width="30" height="29" viewBox="0 0 30 29" fill="none" xmlns="http://www.w3.org/2000/svg">
<path d="M14.9858 0.778656C7.16583 0.778656 0.833328 7.0837 0.833328 14.8524C0.833328 22.6211 7.16583 28.9262 14.9858 28.9262C22.82 28.9262 29.1667 22.6211 29.1667 14.8524C29.1667 7.0837 22.82 0.778656 14.9858 0.778656ZM15 26.1114C8.73833 26.1114 3.66666 21.073 3.66666 14.8524C3.66666 8.63182 8.73833 3.59341 15 3.59341C21.2617 3.59341 26.3333 8.63182 26.3333 14.8524C26.3333 21.073 21.2617 26.1114 15 26.1114ZM14.6883 7.81554H14.6033C14.0367 7.81554 13.5833 8.2659 13.5833 8.82885V15.4717C13.5833 15.9643 13.8383 16.4287 14.2775 16.682L20.1567 20.1864C20.6383 20.4679 21.2617 20.3271 21.545 19.8486C21.8425 19.3701 21.6867 18.7368 21.1908 18.4553L15.7083 15.2183V8.82885C15.7083 8.2659 15.255 7.81554 14.6883 7.81554Z" fill="white"/>
</svg>
